<svg xmlns="http://www.w3.org/2000/svg" viewBox="0 0 620 340" fill="none">
<rect width="620" height="340" fill="#FFF6D6"/>
<ellipse cx="310" cy="328" rx="240" ry="7" fill="#14202B" fill-opacity=".08"/>
<circle cx="190" cy="258" r="66.24" stroke="#14202B" stroke-width="7"/><circle cx="190" cy="258" r="58.239999999999995" stroke="#14202B" stroke-opacity=".15"/><line x1="190" y1="258" x2="248.2" y2="258.0" stroke="#14202B" stroke-opacity=".28"/><line x1="190" y1="258" x2="243.8" y2="280.3" stroke="#14202B" stroke-opacity=".28"/><line x1="190" y1="258" x2="231.2" y2="299.2" stroke="#14202B" stroke-opacity=".28"/><line x1="190" y1="258" x2="212.3" y2="311.8" stroke="#14202B" stroke-opacity=".28"/><line x1="190" y1="258" x2="190.0" y2="316.2" stroke="#14202B" stroke-opacity=".28"/><line x1="190" y1="258" x2="167.7" y2="311.8" stroke="#14202B" stroke-opacity=".28"/><line x1="190" y1="258" x2="148.8" y2="299.2" stroke="#14202B" stroke-opacity=".28"/><line x1="190" y1="258" x2="136.2" y2="280.3" stroke="#14202B" stroke-opacity=".28"/><line x1="190" y1="258" x2="131.8" y2="258.0" stroke="#14202B" stroke-opacity=".28"/><line x1="190" y1="258" x2="136.2" y2="235.7" stroke="#14202B" stroke-opacity=".28"/><line x1="190" y1="258" x2="148.8" y2="216.8" stroke="#14202B" stroke-opacity=".28"/><line x1="190" y1="258" x2="167.7" y2="204.2" stroke="#14202B" stroke-opacity=".28"/><line x1="190" y1="258" x2="190.0" y2="199.8" stroke="#14202B" stroke-opacity=".28"/><line x1="190" y1="258" x2="212.3" y2="204.2" stroke="#14202B" stroke-opacity=".28"/><line x1="190" y1="258" x2="231.2" y2="216.8" stroke="#14202B" stroke-opacity=".28"/><line x1="190" y1="258" x2="243.8" y2="235.7" stroke="#14202B" stroke-opacity=".28"/><circle cx="190" cy="258" r="6" fill="#14202B"/><circle cx="430" cy="258" r="66.24" stroke="#14202B" stroke-width="7"/><circle cx="430" cy="258" r="58.239999999999995" stroke="#14202B" stroke-opacity=".15"/><line x1="430" y1="258" x2="488.2" y2="258.0" stroke="#14202B" stroke-opacity=".28"/><line x1="430" y1="258" x2="483.8" y2="280.3" stroke="#14202B" stroke-opacity=".28"/><line x1="430" y1="258" x2="471.2" y2="299.2" stroke="#14202B" stroke-opacity=".28"/><line x1="430" y1="258" x2="452.3" y2="311.8" stroke="#14202B" stroke-opacity=".28"/><line x1="430" y1="258" x2="430.0" y2="316.2" stroke="#14202B" stroke-opacity=".28"/><line x1="430" y1="258" x2="407.7" y2="311.8" stroke="#14202B" stroke-opacity=".28"/><line x1="430" y1="258" x2="388.8" y2="299.2" stroke="#14202B" stroke-opacity=".28"/><line x1="430" y1="258" x2="376.2" y2="280.3" stroke="#14202B" stroke-opacity=".28"/><line x1="430" y1="258" x2="371.8" y2="258.0" stroke="#14202B" stroke-opacity=".28"/><line x1="430" y1="258" x2="376.2" y2="235.7" stroke="#14202B" stroke-opacity=".28"/><line x1="430" y1="258" x2="388.8" y2="216.8" stroke="#14202B" stroke-opacity=".28"/><line x1="430" y1="258" x2="407.7" y2="204.2" stroke="#14202B" stroke-opacity=".28"/><line x1="430" y1="258" x2="430.0" y2="199.8" stroke="#14202B" stroke-opacity=".28"/><line x1="430" y1="258" x2="452.3" y2="204.2" stroke="#14202B" stroke-opacity=".28"/><line x1="430" y1="258" x2="471.2" y2="216.8" stroke="#14202B" stroke-opacity=".28"/><line x1="430" y1="258" x2="483.8" y2="235.7" stroke="#14202B" stroke-opacity=".28"/><circle cx="430" cy="258" r="6" fill="#14202B"/><g stroke="#E5A800" stroke-width="9" stroke-linecap="round" stroke-linejoin="round" fill="none">
<path d="M190 258 L296 266"/><path d="M190 258 L269 178"/><path d="M296 266 L269 178"/>
<path d="M269 178 L398 173"/><path d="M296 266 L403 203"/><path d="M398 173 L403 203"/><path d="M403 203 L430 258"/></g>
<path d="M269 178 L261 154" stroke="#14202B" stroke-width="6" stroke-linecap="round"/>
<path d="M235 150 Q263 142 297 152" stroke="#14202B" stroke-width="11" stroke-linecap="round"/>
<path d="M398 173 L412 151 h34" stroke="#14202B" stroke-width="7" stroke-linecap="round" stroke-linejoin="round"/>

<circle cx="296" cy="266" r="24" stroke="#14202B" stroke-width="5"/>
<path d="M296 266 L274 310 M296 266 L318 222" stroke="#14202B" stroke-width="7" stroke-linecap="round"/>
<rect x="258" y="308" width="30" height="8" rx="4" fill="#F2C230"/><rect x="304" y="214" width="30" height="8" rx="4" fill="#F2C230"/>
</svg>